<svg width="57" height="57" viewBox="0 0 57 57" fill="none" xmlns="http://www.w3.org/2000/svg">
<path d="M31.8423 0.978142C31.1435 1.15313 30.248 1.57892 29.7128 1.97165C29.3851 2.21162 29.3303 2.22303 28.7957 2.11359C26.7973 1.68779 24.8536 2.61576 24.0236 4.39587C23.7723 4.9311 23.729 5.16023 23.729 6.0557C23.729 6.99506 23.7614 7.15865 24.0784 7.80275C24.5042 8.66573 25.0719 9.27678 26.0443 9.91061C27.475 10.8277 28.5557 11.9307 29.637 13.5472C29.9648 14.0386 30.2264 14.4535 30.2264 14.4752C30.2264 14.4968 29.877 14.5299 29.4404 14.5407C27.8022 14.5954 26.852 15.1193 24.9961 16.9649C18.5306 23.3974 5.45875 42.4969 1.29831 51.5719C0.337295 53.6684 0.239255 53.9961 0.402845 54.7172C0.577835 55.4707 0.981395 55.8965 1.72411 56.0715C2.22628 56.1918 2.35738 56.1809 3.04537 55.9621C3.94084 55.6674 7.71936 53.8325 9.75027 52.6863C21.5333 46.0902 37.4112 34.6458 40.9384 30.2231C41.6378 29.3379 41.8561 28.8466 42.0527 27.7003L42.1838 26.9029L43.1665 27.4706C44.5533 28.2566 45.6016 29.0757 46.3443 29.9387C47.3708 31.118 47.873 31.5547 48.6596 31.9696C49.7626 32.5373 50.8108 32.734 51.9576 32.5812C53.3444 32.3846 54.4913 31.5222 55.1029 30.2117C55.507 29.3488 55.507 28.0383 55.1137 27.0665L54.8407 26.4001L55.1029 26.0291C56.2275 24.4131 56.5005 22.6763 55.8564 21.224C55.4962 20.4157 54.4805 19.16 53.6066 18.4395C52.482 17.5002 50.3303 16.5391 49.3698 16.5391C49.2279 16.5391 49.1185 16.5067 49.1185 16.4736C49.1185 16.4297 49.5009 15.9931 49.9814 15.5017C51.423 13.9947 52.0124 12.6734 52.0015 10.9697C51.9907 9.72479 51.7724 9.02597 51.0297 7.91219C49.5557 5.69547 47.2295 4.84332 44.4228 5.50964C43.3746 5.76101 41.66 6.54704 41.114 7.03838L40.7429 7.3553L40.5571 6.6998C40.1313 5.17106 39.1919 3.78426 37.8382 2.72462C36.8663 1.94942 36.0142 1.45808 35.0645 1.13033C34.2232 0.836216 32.6723 0.759834 31.8423 0.978142ZM34.7801 3.00905C35.4898 3.28208 36.888 4.29782 37.499 4.99664C38.5148 6.15431 38.9953 7.51946 38.9953 9.33206C38.9953 10.6533 38.7661 11.9854 38.2748 13.4817L37.9254 14.5191L37.8598 13.2086C37.7287 10.8169 37.1171 9.02597 35.7628 7.06061C35.1295 6.14348 33.513 4.56002 32.4431 3.80648C31.4604 3.1185 31.4821 3.14016 31.7443 2.99823C32.4431 2.62716 33.7644 2.63798 34.7801 3.00905ZM28.5882 3.9923C30.3467 4.39643 33.0222 6.44957 34.3213 8.4041C35.5006 10.162 35.9372 11.7346 35.9486 14.1372C35.9486 15.9937 35.7736 17.0094 35.1187 19.0295L34.6712 20.3946L34.0482 18.6037C33.3164 16.4742 32.9783 15.6773 32.1154 14.1155C30.7724 11.6257 29.0471 9.60566 27.2669 8.42633C26.7648 8.09858 26.2404 7.71668 26.1093 7.56335C25.3557 6.75509 25.3449 5.28108 26.0876 4.53837C26.6445 3.98091 27.6164 3.76259 28.5882 3.9923ZM47.7094 7.46474C48.4846 7.75943 49.4348 8.72045 49.8498 9.62675C50.0903 10.1398 50.1445 10.4242 50.1553 11.1338C50.1553 11.9307 50.1228 12.0732 49.7728 12.7173C49.314 13.5689 48.0035 14.9124 46.7695 15.797C46.049 16.2992 45.7646 16.4303 45.186 16.5397C43.2423 16.8783 40.5012 17.7846 38.7103 18.6801L37.9784 19.0511L38.5353 17.9374C39.6166 15.7753 40.5668 12.9578 40.7742 11.3197C40.8506 10.6208 41.0034 10.2823 41.5603 9.49565C42.1935 8.60018 42.4774 8.34882 43.264 7.94468C44.8703 7.13699 46.3882 6.9734 47.7094 7.46474ZM30.9799 16.5283C31.1874 16.583 31.3293 16.7797 31.5585 17.3582C32.0606 18.5706 32.6067 20.263 32.9561 21.7045C33.4583 23.7468 33.4913 23.8448 33.7313 23.9759C33.8516 24.0415 34.7032 24.3037 35.6095 24.5659C37.3132 25.0464 40.0104 25.9635 40.1415 26.0946C40.1854 26.1385 40.2179 26.5312 40.2071 26.9793C40.1963 27.6564 40.1415 27.8964 39.836 28.508C39.2352 29.7421 36.8002 32.0243 32.6289 35.2568C31.3402 36.2617 31.1219 36.3928 30.8272 36.3381C29.0032 36.0212 27.6819 35.3987 26.6553 34.3397C26.0546 33.7172 25.8471 33.5753 25.574 33.5753C25.1591 33.5753 24.7116 33.9139 24.613 34.285C24.4164 35.0493 25.7051 36.3381 27.5508 37.2444C28.2057 37.5721 28.8065 37.8343 28.8829 37.8343C28.9593 37.8343 29.0248 37.8668 29.0248 37.9107C29.0248 38.031 25.4646 40.5424 22.1341 42.7814C20.4304 43.9282 19.4152 44.5615 19.3496 44.4959C19.2841 44.4304 18.9563 44.3323 18.6069 44.2668C17.6134 44.081 16.8815 43.7099 16.2044 43.0327C15.5272 42.3448 15.1778 42.2575 14.6865 42.6394C14.3262 42.9233 14.2168 43.4038 14.4351 43.8188C14.6973 44.3209 15.6692 45.1292 16.4774 45.5117C16.8924 45.7083 17.231 45.8941 17.231 45.9375C17.231 46.1125 11.214 49.7377 8.11267 51.4306C5.50264 52.8613 2.43432 54.3028 2.29239 54.1717C2.22685 54.1061 3.05677 52.1949 3.76642 50.7865C4.38885 49.5416 5.92843 46.7349 6.11425 46.4949C6.20146 46.3969 6.37644 46.4624 6.83472 46.7788C7.71936 47.3796 8.54928 47.7723 8.90952 47.7723C9.26976 47.7723 9.66306 47.4445 9.7611 47.0626C9.8922 46.5274 9.63 46.2111 8.57094 45.5995C6.98748 44.704 7.07469 44.8567 7.62075 43.9288C8.64732 42.2034 10.5802 39.1567 12.5678 36.1756L14.6534 33.0412L15.0359 33.7731C15.2542 34.1772 15.7022 34.7888 16.0408 35.1274C16.576 35.6626 16.7288 35.7607 17.0674 35.7607C17.6026 35.7607 17.9953 35.3674 17.9953 34.8327C17.9953 34.505 17.8973 34.3414 17.4384 33.8825C16.816 33.2601 16.4227 32.5066 16.2374 31.5786L16.1172 30.9778L16.8052 30.006C18.192 28.0731 19.6882 26.0638 20.8784 24.5459L22.0794 22.9841L22.3199 23.6174C23.0735 25.6375 24.6569 27.5704 25.5307 27.5704C26.0112 27.5704 26.4479 27.1337 26.4479 26.6641C26.4479 26.3146 26.3384 26.1511 25.6288 25.4192C24.6677 24.4257 24.2203 23.6066 23.8703 22.1867C23.6628 21.3568 23.652 21.204 23.7831 20.9527C24.0122 20.5485 26.8736 17.5999 27.5069 17.1308C27.8016 16.9125 28.2605 16.672 28.5118 16.5847C28.9923 16.4411 30.5319 16.3978 30.9799 16.5283ZM49.3693 18.4618C50.7122 18.7564 51.8921 19.4011 52.8417 20.3507C53.3006 20.8096 53.8027 21.4098 53.9555 21.6828C54.4685 22.5566 54.4577 23.5177 53.9122 24.3909L53.6939 24.762L52.7437 23.8118C51.5096 22.5886 50.5378 21.8897 49.0637 21.1693C46.6612 20.0008 44.2262 19.6405 40.9281 19.9899L40.4368 20.0338L40.9281 19.8047C41.8453 19.3789 44.0295 18.7126 45.1872 18.5051C46.6395 18.2543 48.3433 18.232 49.3693 18.4618ZM45.0014 21.945C48.0047 22.3925 50.5925 23.9651 52.5476 26.5204C53.4869 27.7436 53.6944 28.5844 53.2681 29.5129C52.4598 31.293 50.0687 31.3255 48.6049 29.5568C46.3773 26.8704 43.5815 25.1558 38.7006 23.4629L37.1827 22.9385L37.772 22.7419C40.1963 21.9011 42.8063 21.6173 45.0014 21.945Z" fill="#8EC63F"/>
<path d="M32.0829 23.7799C31.7226 23.9657 31.5043 24.4354 31.5915 24.8389C31.6896 25.2756 33.5352 27.1104 34.7693 27.995C35.9594 28.8466 37.7726 29.7535 38.2748 29.7535C38.6897 29.7535 39.0283 29.4696 39.1372 29.0216C39.2683 28.4972 38.9953 28.2133 37.7173 27.5692C36.2541 26.8157 35.064 25.9419 33.9388 24.7734C32.8034 23.5941 32.6398 23.496 32.0829 23.7799Z" fill="#8EC63F"/>
</svg>
