<svg width="58" height="57" viewBox="0 0 58 57" fill="none" xmlns="http://www.w3.org/2000/svg">
<g clip-path="url(#clip0_2_114)">
<path d="M54.4634 28.0201H50.0859V16.7954C50.9599 16.4957 51.7698 16.0167 52.4637 15.3775C53.6503 14.2843 54.4006 12.816 54.5908 11.2233C54.6154 11.0989 54.6282 10.9705 54.6282 10.8389V1.97017C54.6281 0.882051 53.7461 0 52.6581 0H4.96074C3.87262 0 2.99057 0.882051 2.99057 1.97017V10.8394C2.99057 10.9699 3.00326 11.0972 3.02775 11.2205C3.21756 12.8144 3.96791 14.2838 5.15534 15.3777C6.08671 16.2357 7.22682 16.8057 8.45098 17.0395V28.0202H4.07356C2.98556 28.0202 2.10339 28.9023 2.10339 29.9904C2.10339 31.0227 2.89783 31.8682 3.90869 31.9522V53.0682C3.90869 54.1562 4.79074 55.0384 5.87886 55.0384H8.45142C8.45599 56.1225 9.33592 57.0001 10.4211 57.0001C11.5064 57.0001 12.3863 56.1226 12.3909 55.0384H46.1462C46.1507 56.1225 47.0307 57.0001 48.1159 57.0001C49.2012 57.0001 50.081 56.1226 50.0856 55.0384H52.6584C53.7464 55.0384 54.6286 54.1563 54.6286 53.0682V31.9521C55.639 31.8682 56.4335 31.0227 56.4335 29.9903C56.4334 28.9023 55.5514 28.0201 54.4634 28.0201ZM50.6881 10.6617C50.6877 10.6637 50.6876 10.6654 50.6874 10.6673C50.562 12.0984 49.3366 13.2194 47.8976 13.2194C46.4588 13.2194 45.2333 12.0984 45.1079 10.6673C45.1058 10.6431 45.1011 10.6196 45.0982 10.5956H50.6881V10.6617ZM19.2654 17.1597C20.9623 17.1597 22.5838 16.5269 23.8314 15.3777C23.9016 15.3129 23.9703 15.247 24.0374 15.1798C24.1046 15.247 24.1733 15.3132 24.2435 15.3777C25.491 16.527 27.1124 17.1597 28.8095 17.1597C30.5065 17.1597 32.128 16.5269 33.3755 15.3777C33.4458 15.3129 33.5145 15.247 33.5816 15.1797C33.6488 15.247 33.7175 15.3129 33.7876 15.3777C35.0352 16.527 36.6566 17.1597 38.3537 17.1597C40.0506 17.1597 41.6721 16.5269 42.9197 15.3777C42.9899 15.3129 43.0586 15.247 43.1257 15.1797C43.193 15.247 43.2617 15.3129 43.3319 15.3777C44.1398 16.1221 45.1051 16.6482 46.1458 16.9277V28.0203H12.3912V16.6085C13.0811 16.3107 13.7228 15.8976 14.2871 15.3776C14.3574 15.3128 14.4261 15.2469 14.4932 15.1796C14.5604 15.2469 14.6291 15.3128 14.6993 15.3776C15.9468 16.527 17.5684 17.1597 19.2654 17.1597ZM16.4659 10.5956H22.065C22.062 10.6197 22.0575 10.6431 22.0554 10.6673C21.9299 12.0984 20.7044 13.2194 19.2655 13.2194C17.8267 13.2194 16.6011 12.0984 16.4756 10.6673C16.4735 10.6431 16.4688 10.6196 16.4659 10.5956ZM26.0099 10.5956H31.609C31.606 10.6197 31.6014 10.6431 31.5993 10.6673C31.4738 12.0984 30.2484 13.2194 28.8094 13.2194C27.3704 13.2194 26.1451 12.0984 26.0197 10.6673C26.0176 10.6431 26.0131 10.6196 26.0099 10.5956ZM35.5541 10.5956H41.1531C41.1501 10.6197 41.1455 10.6431 41.1434 10.6673C41.0179 12.0984 39.7925 13.2194 38.3535 13.2194C36.9147 13.2194 35.6892 12.0984 35.5639 10.6673C35.5618 10.6431 35.5571 10.6196 35.5541 10.5956ZM6.93079 3.94023H50.688V6.65529H6.93079V3.94023ZM6.93135 10.6673C6.93124 10.6654 6.93113 10.6637 6.93079 10.6618V10.5955H12.5209C12.5179 10.6196 12.5133 10.6429 12.5112 10.6672C12.3857 12.0983 11.1604 13.2193 9.72134 13.2193C8.28231 13.2193 7.05682 12.0984 6.93135 10.6673ZM50.6879 51.0979H7.84892V31.9605H50.6879V51.0979Z" fill="#8EC63F"/>
<path d="M42.7024 39.8838C41.9097 37.6305 39.7612 36.0104 37.2404 36.0104H21.2965C18.7757 36.0104 16.6272 37.6305 15.8345 39.8838C14.9649 40.0885 14.3169 40.8676 14.3169 41.7996C14.3169 42.7318 14.9649 43.5108 15.8345 43.7155C16.6272 45.9688 18.7757 47.5889 21.2965 47.5889H37.2404C39.7612 47.5889 41.9097 45.9688 42.7024 43.7155C43.572 43.5108 44.22 42.7318 44.22 41.7996C44.22 40.8675 43.572 40.0884 42.7024 39.8838ZM37.2405 43.6487H21.2965C20.2771 43.6487 19.4476 42.8191 19.4476 41.7996C19.4476 40.78 20.2769 39.9506 21.2966 39.9506H37.2405C38.26 39.9506 39.0896 40.78 39.0896 41.7996C39.0896 42.8193 38.2601 43.6487 37.2405 43.6487Z" fill="#8EC63F"/>
</g>
<defs>
<clipPath id="clip0_2_114">
<rect width="57" height="57" fill="white" transform="translate(0.768433)"/>
</clipPath>
</defs>
</svg>
