<svg width="58" height="57" viewBox="0 0 58 57" fill="none" xmlns="http://www.w3.org/2000/svg">
<g clip-path="url(#clip0_2_166)">
<path d="M57.1475 27.2986C56.7172 26.8384 56.1107 26.5747 55.483 26.5747H55.2963C56.1425 25.1181 56.6026 23.4643 56.6026 21.7613C56.6026 17.9212 54.3057 14.4642 50.8189 12.9451C50.737 7.70815 46.457 3.47046 41.2008 3.47046C35.9455 3.47046 31.6664 7.70527 31.5817 12.9403C31.3853 12.8941 31.1832 12.8671 30.9772 12.8671C30.1214 12.8671 29.3156 13.2849 28.8237 13.9838L28.584 14.3246C28.3866 14.6038 28.016 14.7049 27.706 14.5605L27.3286 14.3853C26.5518 14.0233 25.6459 14.0657 24.9037 14.4931C24.1614 14.9205 23.6734 15.6858 23.5963 16.5378L23.5588 16.9527C23.5453 17.101 23.4799 17.308 23.3942 17.5294C23.1737 17.4244 23.0158 17.2088 22.9927 16.9518L22.9552 16.5388C22.882 15.7301 22.4498 15.0601 21.8308 14.6356L24.8603 10.3363C25.4505 9.49777 25.6796 8.47637 25.5024 7.46171C25.3263 6.44513 24.7679 5.56043 23.9304 4.97031C22.1937 3.74771 19.787 4.16359 18.5644 5.90025L13.0194 13.7701C12.8346 14.0329 12.6979 14.3179 12.5853 14.6105C12.4957 14.6144 12.4004 14.6057 12.3022 14.5605L11.9249 14.3853C11.148 14.0252 10.2402 14.0666 9.49988 14.4941C8.75863 14.9215 8.27055 15.6858 8.19353 16.5378L8.15599 16.9527C8.12519 17.2945 7.85467 17.565 7.51292 17.5958L7.09897 17.6333C6.24701 17.7104 5.48168 18.1994 5.05425 18.9397C4.62586 19.6819 4.58543 20.5878 4.94547 21.3666L5.11971 21.742C5.26411 22.0539 5.16496 22.4236 4.88386 22.621L4.54403 22.8607C3.84417 23.3545 3.42637 24.1603 3.42637 25.0161C3.42637 25.587 3.6266 26.1261 3.95776 26.5737H3.05285C2.42519 26.5737 1.8187 26.8375 1.38838 27.2976C0.954218 27.7616 0.729914 28.3932 0.773235 29.0276C1.34314 37.4481 6.69946 41.6762 14.5674 45.4335C15.4454 45.8532 16.1703 46.5502 16.6102 47.3993C17.0396 48.2291 16.9712 49.2996 16.4234 50.2103C16.0105 50.8957 15.9989 51.7207 16.3926 52.4177C16.7864 53.1147 17.4988 53.5296 18.2987 53.5296H40.2381C41.0381 53.5296 41.7505 53.1137 42.1442 52.4177C42.5379 51.7207 42.5264 50.8957 42.1038 50.1929C41.5656 49.2986 41.4982 48.2291 41.9266 47.4002C42.3656 46.5511 43.0905 45.8532 43.9694 45.4335C51.8355 41.6762 57.1927 37.449 57.7636 29.0285C57.806 28.3932 57.5807 27.7626 57.1475 27.2986ZM54.6782 21.7613C54.6782 23.5134 54.0766 25.2067 52.9762 26.5747H47.9395V22.724C47.9395 22.1916 47.5092 21.7613 46.9768 21.7613C46.4445 21.7613 46.0142 22.1916 46.0142 22.724V26.5747H42.615C42.6929 26.4688 42.7603 26.3571 42.821 26.2416C42.8238 26.2368 42.8277 26.232 42.8306 26.2271C42.9153 26.0635 42.976 25.8883 43.0251 25.7102C43.0376 25.6659 43.0482 25.6216 43.0578 25.5754C43.0973 25.3925 43.1252 25.2067 43.1252 25.0161C43.1252 24.1593 42.7074 23.3545 42.0085 22.8636L41.7871 22.7066C41.8641 22.7018 41.9382 22.6893 42.0142 22.6835C42.1298 22.6739 42.2453 22.6624 42.3598 22.6479C42.5495 22.6248 42.7372 22.5959 42.923 22.5622C43.0328 22.542 43.1435 22.5237 43.2522 22.4997C43.4525 22.4563 43.6498 22.4024 43.8453 22.3466C43.9329 22.3216 44.0214 22.3013 44.1081 22.2734C44.3824 22.1858 44.651 22.0886 44.9138 21.9779C44.987 21.9471 45.0563 21.9105 45.1275 21.8778C45.3181 21.7921 45.5078 21.7035 45.6917 21.6053C45.7947 21.5505 45.8948 21.4908 45.9949 21.4321C46.1422 21.3464 46.2885 21.2597 46.431 21.1664C46.5369 21.097 46.6409 21.0258 46.7439 20.9526C46.8738 20.8602 47.0019 20.764 47.127 20.6658C47.23 20.5849 47.3321 20.505 47.4312 20.4203C47.5496 20.3192 47.6623 20.2133 47.7759 20.1074C47.8731 20.0169 47.9713 19.9274 48.0647 19.833C48.1715 19.7243 48.2707 19.6087 48.3717 19.4951C48.5633 19.2805 48.7443 19.0581 48.9166 18.8261C48.9773 18.7443 49.0418 18.6653 49.1005 18.5806C49.2054 18.4295 49.3017 18.2726 49.398 18.1166C49.4461 18.0377 49.4962 17.9597 49.5424 17.8788C49.6396 17.7104 49.7291 17.538 49.8158 17.3638C49.8495 17.2945 49.8831 17.2261 49.9159 17.1558C50.0054 16.9643 50.0892 16.7708 50.1662 16.5725C50.1825 16.5301 50.1979 16.4858 50.2133 16.4435C50.3876 15.9746 50.5358 15.4933 50.636 14.9946C53.0946 16.3241 54.6782 18.9108 54.6782 21.7613ZM41.2008 5.39581C45.4471 5.39581 48.9022 8.85085 48.9022 13.0972C48.9022 13.2426 48.8897 13.3851 48.881 13.5285C48.881 13.5285 48.8781 13.5343 48.8781 13.5381C48.8213 14.5499 48.5691 15.5058 48.1609 16.3732C48.1571 16.3819 48.1532 16.3905 48.1494 16.3992C48.055 16.5985 47.9511 16.791 47.8404 16.9806C47.8269 17.0037 47.8144 17.0269 47.8009 17.05C47.6979 17.2223 47.5862 17.3898 47.4697 17.5525C47.4447 17.5881 47.4206 17.6237 47.3956 17.6584C47.2868 17.8066 47.1703 17.9491 47.051 18.0887C47.0134 18.133 46.9768 18.1782 46.9383 18.2215C46.8257 18.3486 46.7063 18.4689 46.585 18.5883C46.535 18.6384 46.4859 18.6884 46.4339 18.7375C46.3184 18.8453 46.1971 18.9464 46.0748 19.0475C46.0122 19.0995 45.9506 19.1524 45.8861 19.2015C45.7677 19.292 45.6455 19.3767 45.5222 19.4615C45.4481 19.5125 45.3749 19.5645 45.2979 19.6126C45.1776 19.6886 45.0534 19.757 44.9292 19.8263C44.8445 19.8735 44.7598 19.9226 44.6731 19.9669C44.5519 20.0285 44.4267 20.0833 44.3025 20.1382C44.2072 20.1806 44.1129 20.2249 44.0156 20.2624C43.8934 20.3105 43.7682 20.3519 43.6431 20.3933C43.5382 20.4289 43.4352 20.4655 43.3283 20.4963C43.207 20.532 43.0818 20.5589 42.9577 20.5878C42.8431 20.6147 42.7295 20.6436 42.613 20.6658C42.4927 20.6879 42.3704 20.7023 42.2491 20.7197C42.125 20.737 42.0017 20.7553 41.8766 20.7668C41.8525 20.7688 41.8275 20.7688 41.8025 20.7707C41.8044 20.7582 41.8044 20.7457 41.8063 20.7332C41.8381 20.5589 41.8487 20.3827 41.8448 20.2066C41.8438 20.1498 41.8371 20.0949 41.8323 20.0381C41.8207 19.8995 41.7976 19.7637 41.7649 19.629C41.7514 19.5751 41.7408 19.5211 41.7235 19.4682C41.6667 19.2872 41.5964 19.1091 41.4992 18.9416C41.0708 18.2004 40.3065 17.7123 39.4545 17.6353L39.0396 17.5977C38.7845 17.5746 38.5688 17.4177 38.4629 17.1963L40.5202 15.14C40.8966 14.7636 40.8966 14.1552 40.5202 13.7788C40.1438 13.4024 39.5354 13.4024 39.1589 13.7788L37.7852 15.1525C37.5821 14.8955 37.3433 14.6644 37.0526 14.496C36.8582 14.3833 36.6512 14.3015 36.4394 14.2428C36.3682 14.2226 36.296 14.2207 36.2238 14.2072C36.0793 14.1793 35.9369 14.1533 35.7905 14.1504C35.7723 14.1504 35.754 14.1427 35.7357 14.1427C35.625 14.1427 35.5162 14.1639 35.4064 14.1783C35.3381 14.187 35.2697 14.187 35.2024 14.2004C35.006 14.2409 34.8134 14.3006 34.6276 14.3862L34.2522 14.5605C34.1559 14.6048 34.0539 14.6221 33.9509 14.6182C33.9451 14.6182 33.9403 14.6173 33.9345 14.6173C33.8334 14.6105 33.7323 14.5826 33.6399 14.5316C33.5466 14.0445 33.4994 13.5631 33.4994 13.0972C33.4994 8.85085 36.9535 5.39581 41.2008 5.39581ZM25.4764 17.127L25.514 16.7121C25.5342 16.4791 25.6632 16.2779 25.8663 16.1614C26.0685 16.0449 26.3072 16.0324 26.519 16.1325L26.8983 16.3087C28.0526 16.842 29.4253 16.4733 30.1579 15.4346L30.3976 15.0938C30.6682 14.7097 31.29 14.7126 31.5586 15.0928L31.7983 15.4336C32.2893 16.1296 33.0671 16.5157 33.8748 16.5397C33.8844 16.5397 33.8931 16.5397 33.9027 16.5397C34.0192 16.5417 34.1367 16.5397 34.2532 16.5263C34.308 16.5205 34.3619 16.508 34.4168 16.4983C34.4957 16.4839 34.5737 16.4733 34.6517 16.4521C34.7903 16.4146 34.927 16.3674 35.0599 16.3058L35.4363 16.1306C35.649 16.0324 35.8878 16.043 36.089 16.1595C36.2911 16.2769 36.4201 16.4772 36.4404 16.7111L36.4779 17.1241C36.5934 18.3929 37.5975 19.3979 38.8653 19.5115L39.2793 19.5491C39.5132 19.5693 39.7144 19.6983 39.8309 19.9014C39.9483 20.1036 39.9589 20.3423 39.8607 20.5531L39.6836 20.9344C39.6759 20.9517 39.673 20.9671 39.6663 20.9844C39.3236 21.77 39.3948 22.6431 39.8011 23.3497C39.8068 23.3593 39.8126 23.3699 39.8184 23.3795C39.8704 23.4671 39.9252 23.5509 39.9878 23.6327C40.0215 23.678 40.059 23.7194 40.0956 23.7627C40.1428 23.8166 40.188 23.8724 40.24 23.9225C40.3382 24.0197 40.4432 24.1112 40.5587 24.192L40.9004 24.4337C41.091 24.5704 41.2008 24.7822 41.2008 25.0161C41.2008 25.25 41.091 25.4608 40.9004 25.5956L40.5577 25.8363C40.5548 25.8382 40.5529 25.8411 40.5491 25.844C40.4239 25.9335 40.3093 26.0346 40.2025 26.1444C40.1601 26.1877 40.1235 26.2368 40.0841 26.283C40.0263 26.3513 39.9695 26.4206 39.9195 26.4948C39.9002 26.5227 39.8752 26.5467 39.8569 26.5756H27.2121C27.2901 26.4697 27.3575 26.3571 27.4191 26.2416C27.422 26.2368 27.4249 26.2329 27.4278 26.2281C27.5125 26.0635 27.5741 25.8883 27.6232 25.7092C27.6357 25.6649 27.6454 25.6216 27.655 25.5773C27.6954 25.3954 27.7224 25.2096 27.7233 25.0199V25.018C27.7233 24.8948 27.6964 24.7774 27.68 24.657C27.6675 24.5685 27.6694 24.477 27.6473 24.3904C27.577 24.1035 27.4432 23.8407 27.2834 23.5942C27.1024 23.316 26.8839 23.0609 26.6057 22.8645L26.2649 22.6238C25.9847 22.4265 25.8865 22.0578 26.03 21.7478L26.2062 21.3695C26.2918 21.1846 26.3506 20.9911 26.391 20.7948C26.4035 20.736 26.4035 20.6773 26.4112 20.6186C26.4305 20.48 26.4449 20.3423 26.442 20.2037C26.4401 20.1315 26.4285 20.0602 26.4208 19.988C26.4074 19.8639 26.391 19.7406 26.3602 19.6193C26.34 19.5404 26.313 19.4653 26.2861 19.3883C26.2629 19.3248 26.2514 19.2583 26.2244 19.1958C26.2081 19.1582 26.1792 19.1303 26.1609 19.0947C26.1368 19.0456 26.1243 18.9926 26.0974 18.9445C26.0463 18.8569 25.977 18.7847 25.9164 18.7038C25.8663 18.6364 25.822 18.5662 25.7662 18.5036C25.6497 18.3736 25.5169 18.2629 25.3783 18.1599C25.3369 18.1291 25.3061 18.0858 25.2627 18.0579C25.3628 17.7652 25.4476 17.4437 25.4764 17.127ZM20.1394 7.01022C20.7507 6.14188 21.955 5.93394 22.8223 6.54524C23.2402 6.83982 23.5193 7.28265 23.6069 7.79095C23.6945 8.3002 23.5819 8.81138 23.2873 9.22822L19.5319 14.5576C19.5319 14.5576 19.531 14.5576 19.531 14.5586L17.7413 17.0971C17.4468 17.5159 17.0049 17.7951 16.4966 17.8827C15.9893 17.9674 15.4771 17.8576 15.0593 17.5621C15.0574 17.5611 15.0564 17.5592 15.0545 17.5582C14.9169 17.461 14.8013 17.3426 14.6964 17.2175C14.6695 17.1857 14.6444 17.152 14.6194 17.1183C14.5279 16.9922 14.449 16.8584 14.3903 16.7149C14.3864 16.7053 14.3806 16.6976 14.3768 16.688C14.3181 16.5359 14.2853 16.3751 14.2661 16.2115C14.2613 16.1701 14.2594 16.1287 14.2565 16.0873C14.2478 15.9236 14.2526 15.7571 14.2873 15.5905C14.3402 15.3383 14.4413 15.0967 14.5934 14.881L20.1394 7.01022ZM5.99286 25.8353L5.65207 25.5956C5.4605 25.4608 5.35076 25.25 5.35076 25.0151C5.35076 24.7802 5.4605 24.5694 5.65207 24.4337L5.99093 24.1949C7.03351 23.4623 7.40125 22.0905 6.86601 20.9315L6.69176 20.556C6.59261 20.3433 6.60416 20.1045 6.72064 19.9014C6.83809 19.6992 7.03832 19.5702 7.27225 19.55L7.68524 19.5125C8.95405 19.3989 9.95812 18.3948 10.0736 17.126L10.1112 16.7111C10.1314 16.4781 10.2604 16.2779 10.4626 16.1604C10.6638 16.044 10.9035 16.0334 11.1153 16.1316L11.4945 16.3077C11.7699 16.4348 12.0616 16.5089 12.3581 16.532C12.361 16.5523 12.3696 16.5725 12.3735 16.5927C12.3764 16.61 12.3744 16.6273 12.3773 16.6437C12.3966 16.7535 12.437 16.8545 12.4649 16.9614C12.4977 17.0856 12.5227 17.2117 12.567 17.333C12.6199 17.4755 12.6931 17.6073 12.7614 17.7421C12.8076 17.8326 12.8433 17.926 12.8972 18.0126C12.9915 18.1657 13.107 18.3043 13.2226 18.4429C13.2716 18.5017 13.3102 18.5662 13.3621 18.622C13.5393 18.8097 13.7347 18.983 13.9503 19.1341C14.14 19.268 14.3421 19.3777 14.5482 19.474C14.6136 19.5038 14.68 19.5279 14.7474 19.5539C14.8947 19.6126 15.0439 19.6627 15.197 19.7021C15.274 19.7223 15.3501 19.7416 15.429 19.756C15.5917 19.7878 15.7563 19.8061 15.9229 19.8167C15.9854 19.8205 16.0461 19.8302 16.1087 19.8311C16.125 19.8311 16.1404 19.835 16.1568 19.835C16.3792 19.835 16.6025 19.8157 16.8258 19.7772C17.8415 19.6001 18.7262 19.0417 19.3163 18.2042L20.7324 16.1941C20.8931 16.301 21.0173 16.4743 21.0385 16.7111L21.0761 17.1241C21.1916 18.3929 22.1956 19.397 23.4635 19.5115L23.8774 19.5491C23.9679 19.5568 24.0469 19.5943 24.1239 19.6319C24.1614 19.6511 24.199 19.6684 24.2327 19.6944C24.2847 19.7329 24.327 19.783 24.3665 19.835C24.3915 19.8677 24.4194 19.8975 24.4387 19.9351C24.4849 20.0256 24.5176 20.1209 24.5224 20.2191C24.5224 20.2229 24.5215 20.2287 24.5215 20.2326C24.5253 20.3404 24.5051 20.4501 24.4579 20.5522L24.2818 20.9305C24.0806 21.3647 24.0074 21.8287 24.0488 22.2782C24.0498 22.284 24.0517 22.2898 24.0517 22.2965C24.0661 22.44 24.0902 22.5815 24.1277 22.7211C24.2827 23.3006 24.6351 23.8262 25.1549 24.192L25.3888 24.3567L25.4957 24.4317C25.6882 24.5713 25.798 24.7822 25.798 25.0161C25.798 25.1335 25.771 25.2442 25.719 25.3434C25.7046 25.3723 25.6738 25.3896 25.6545 25.4166C25.6083 25.482 25.564 25.5485 25.4957 25.5966L25.4832 25.6052L25.1539 25.8363C25.0221 25.9297 24.9008 26.0375 24.7891 26.153C24.7544 26.1886 24.7265 26.2291 24.6948 26.2656C24.6216 26.3504 24.5513 26.437 24.4887 26.5304C24.4781 26.5458 24.4637 26.5593 24.4541 26.5747H6.69465C6.51078 26.2859 6.273 26.0327 5.99286 25.8353ZM43.1396 43.6958C41.8852 44.2946 40.8475 45.2958 40.216 46.5155C39.4814 47.9345 39.5729 49.7241 40.4634 51.2028C40.5288 51.3125 40.5019 51.4088 40.4663 51.4694C40.4316 51.5301 40.3642 51.6042 40.2362 51.6042H18.2987C18.1717 51.6042 18.1033 51.5311 18.0687 51.4694C18.034 51.4088 18.0061 51.3125 18.0821 51.1855C18.963 49.7232 19.0544 47.9335 18.3199 46.5136C17.6894 45.2939 16.6506 44.2927 15.3972 43.6949C7.93169 40.1311 3.20303 36.4122 2.69473 28.8986C2.68511 28.7551 2.75442 28.6579 2.79582 28.6126C2.84395 28.5607 2.9277 28.5 3.05381 28.5H6.08239H25.0683H40.4711H40.5317H53.421H55.484C55.6091 28.5 55.6929 28.5607 55.742 28.6126C55.7834 28.6579 55.8527 28.7542 55.8421 28.8986C55.3329 36.4122 50.6042 40.1311 43.1396 43.6958Z" fill="#8EC63F"/>
<path d="M36.3874 44.8655H28.0054C27.474 44.8655 27.0427 45.2958 27.0427 45.8282C27.0427 46.3605 27.474 46.7908 28.0054 46.7908H36.3874C36.9188 46.7908 37.3501 46.3605 37.3501 45.8282C37.3501 45.2958 36.9188 44.8655 36.3874 44.8655Z" fill="#8EC63F"/>
<path d="M21.9473 46.7908H25.2069C25.7383 46.7908 26.1696 46.3605 26.1696 45.8282C26.1696 45.2958 25.7383 44.8655 25.2069 44.8655H21.9473C21.4159 44.8655 20.9846 45.2958 20.9846 45.8282C20.9846 46.3605 21.4149 46.7908 21.9473 46.7908Z" fill="#8EC63F"/>
<path d="M36.3874 47.7535H21.9473C21.4159 47.7535 20.9846 48.1839 20.9846 48.7162C20.9846 49.2486 21.4159 49.6789 21.9473 49.6789H36.3874C36.9188 49.6789 37.3501 49.2486 37.3501 48.7162C37.3501 48.1839 36.9188 47.7535 36.3874 47.7535Z" fill="#8EC63F"/>
<path d="M39.159 12.4166C39.3467 12.6043 39.5931 12.6987 39.8396 12.6987C40.086 12.6987 40.3325 12.6043 40.5202 12.4166C40.8966 12.0402 40.8966 11.4318 40.5202 11.0554L37.7968 8.33293C37.4204 7.95653 36.812 7.95653 36.4356 8.33293C36.0592 8.70934 36.0592 9.31775 36.4356 9.69416L39.159 12.4166Z" fill="#8EC63F"/>
<path d="M44.6039 17.8615C44.7916 18.0492 45.038 18.1436 45.2845 18.1436C45.5309 18.1436 45.7774 18.0492 45.9651 17.8615C46.3415 17.4851 46.3405 16.8767 45.9651 16.5003L43.2417 13.7778C42.8653 13.4014 42.2569 13.4014 41.8804 13.7778C41.504 14.1542 41.504 14.7626 41.8804 15.139L44.6039 17.8615Z" fill="#8EC63F"/>
<path d="M42.562 12.6987C42.8085 12.6987 43.0549 12.6043 43.2426 12.4166L45.9661 9.69416C46.3415 9.31775 46.3425 8.70934 45.9661 8.33293C45.5897 7.95653 44.9812 7.95653 44.6048 8.33293L41.8814 11.0554C41.505 11.4318 41.505 12.0402 41.8814 12.4166C42.0691 12.6043 42.3156 12.6987 42.562 12.6987Z" fill="#8EC63F"/>
<path d="M47.9395 20.7986C47.9395 21.331 48.3698 21.7613 48.9022 21.7613H52.7529C53.2852 21.7613 53.7156 21.331 53.7156 20.7986C53.7156 20.2663 53.2852 19.8359 52.7529 19.8359H48.9022C48.3698 19.8359 47.9395 20.2663 47.9395 20.7986Z" fill="#8EC63F"/>
<path d="M30.13 21.2799C30.3765 21.2799 30.6229 21.1856 30.8106 20.9979L32.2547 19.5539C32.6311 19.1775 32.6311 18.569 32.2547 18.1926C31.8782 17.8162 31.2698 17.8162 30.8934 18.1926L29.4494 19.6367C29.073 20.0131 29.073 20.6215 29.4494 20.9979C29.6371 21.1856 29.8836 21.2799 30.13 21.2799Z" fill="#8EC63F"/>
<path d="M34.7441 23.4046C34.9318 23.5923 35.1783 23.6867 35.4247 23.6867C35.6712 23.6867 35.9176 23.5923 36.1053 23.4046C36.4818 23.0282 36.4818 22.4198 36.1053 22.0434L35.1427 21.0807C34.7663 20.7043 34.1579 20.7043 33.7815 21.0807C33.405 21.4571 33.405 22.0655 33.7815 22.4419L34.7441 23.4046Z" fill="#8EC63F"/>
<path d="M30.8934 23.0061L29.9307 23.9687C29.5543 24.3451 29.5543 24.9536 29.9307 25.33C30.1185 25.5177 30.3649 25.612 30.6114 25.612C30.8578 25.612 31.1042 25.5177 31.292 25.33L32.2546 24.3673C32.631 23.9909 32.631 23.3825 32.2546 23.0061C31.8782 22.6297 31.2689 22.6297 30.8934 23.0061Z" fill="#8EC63F"/>
</g>
<defs>
<clipPath id="clip0_2_166">
<rect width="57" height="57" fill="white" transform="translate(0.768433)"/>
</clipPath>
</defs>
</svg>
