<svg width="46" height="50" viewBox="0 0 46 50" fill="none" xmlns="http://www.w3.org/2000/svg">
<path d="M11.855 0.673038C11.6725 0.769037 11.432 0.961537 11.3265 1.10554C11.144 1.36504 11.1345 1.51904 11.1055 5.95004C11.0865 9.24704 11.115 10.6025 11.192 10.7945C11.2495 10.9485 11.4515 11.198 11.634 11.352C12.249 11.8905 13.345 11.6885 13.7485 10.9485C13.912 10.66 13.9215 10.2755 13.9215 6.04604C13.9215 1.54754 13.9215 1.46104 13.7195 1.19204C13.22 0.519536 12.509 0.317537 11.855 0.673038Z" fill="#8EC63F"/>
<path d="M32.8195 0.702033C32.637 0.817533 32.3965 1.04803 32.291 1.19203C32.0985 1.46103 32.089 1.57653 32.06 5.93103C32.031 10.199 32.041 10.4105 32.2235 10.8235C32.4735 11.381 32.8865 11.6405 33.55 11.6405C33.944 11.6405 34.1075 11.5925 34.348 11.3905C34.944 10.8905 34.925 11.025 34.925 6.11353C34.925 2.17253 34.906 1.58603 34.771 1.29753C34.425 0.567533 33.4445 0.269533 32.8195 0.702033Z" fill="#8EC63F"/>
<path d="M4.19401 4.72002C2.90601 4.91202 1.62751 5.87352 1.01251 7.11353L0.657009 7.83453L0.628009 26.896L0.609009 45.9575L0.811009 46.5535C1.22451 47.784 2.13751 48.745 3.37751 49.245L3.92551 49.466L22.7175 49.495C35.896 49.514 41.6635 49.4855 42.0095 49.418C43.4995 49.101 44.7105 48.0145 45.2105 46.544C45.4025 45.9575 45.4025 45.8905 45.3835 26.8965L45.3545 7.84502L45.047 7.19153C44.432 5.89403 43.1535 4.93252 41.75 4.71152C41.404 4.66352 39.895 4.63452 38.3855 4.64402L35.646 4.67303L35.617 6.08603L35.588 7.49903L38.616 7.52803C41.5 7.55703 41.6535 7.56652 41.9035 7.75852C42.0475 7.86452 42.259 8.07552 42.365 8.22002C42.5575 8.47952 42.567 8.59502 42.567 12.1515V15.8235L22.977 15.8525L3.38701 15.872L3.41601 12.181C3.44501 8.62452 3.45451 8.47053 3.64651 8.22053C3.75201 8.07653 3.96351 7.86503 4.10801 7.75903C4.35801 7.56703 4.51201 7.55702 7.33801 7.52852L10.2985 7.49952L10.337 6.60553C10.3465 6.11552 10.3465 5.46152 10.337 5.16352L10.2985 4.62502L7.50151 4.63453C5.95301 4.64302 4.47301 4.68152 4.19401 4.72002ZM42.5955 32.1825L42.5665 45.6205L42.3455 45.9665C41.903 46.6875 43.5855 46.63 22.986 46.63C5.13601 46.63 4.48201 46.6205 4.16501 46.4475C3.98251 46.3515 3.74201 46.121 3.63651 45.9475C3.44451 45.6205 3.44451 45.4285 3.41551 32.1825L3.39601 18.754H23.005H42.614L42.5955 32.1825Z" fill="#8EC63F"/>
<path d="M9.99052 23.07C9.44252 23.4355 9.35602 23.685 9.35602 24.954C9.35602 26.2515 9.47152 26.569 10.048 26.9245C10.3365 27.0975 10.538 27.1165 12.2975 27.1165C14.143 27.1165 14.249 27.107 14.547 26.8955C15.191 26.463 15.268 26.261 15.268 25.021C15.268 23.752 15.1525 23.406 14.6145 23.0795C14.3355 22.9065 14.1245 22.887 12.2885 22.887C10.471 22.887 10.2405 22.9065 9.99052 23.07Z" fill="#8EC63F"/>
<path d="M20.689 23.1085C20.1315 23.4835 20.016 23.8295 20.045 25.0985C20.074 26.0885 20.1025 26.2425 20.3045 26.5305C20.6795 27.059 20.9485 27.117 23.015 27.117C25.0525 27.117 25.3315 27.0595 25.7255 26.502C25.908 26.2425 25.937 26.06 25.966 25.0985C25.9945 23.8295 25.8795 23.4835 25.322 23.1085C25.005 22.897 24.9185 22.8875 23.0055 22.8875C21.0925 22.887 21.006 22.897 20.689 23.1085Z" fill="#8EC63F"/>
<path d="M31.397 23.0795C30.8585 23.4065 30.7435 23.7525 30.7435 25.021C30.7435 26.261 30.8205 26.463 31.4645 26.8955C31.7625 27.107 31.868 27.1165 33.714 27.1165C35.473 27.1165 35.675 27.0975 35.963 26.9245C36.54 26.569 36.655 26.2515 36.655 24.954C36.655 23.685 36.5685 23.435 36.0205 23.07C35.7705 22.9065 35.54 22.8875 33.723 22.8875C31.8875 22.887 31.676 22.9065 31.397 23.0795Z" fill="#8EC63F"/>
<path d="M10.1635 30.673C10.0575 30.7115 9.82704 30.9135 9.65404 31.1055L9.33704 31.461L9.37554 32.749C9.40454 34.008 9.40454 34.0275 9.68304 34.316C10.135 34.787 10.3175 34.816 12.442 34.787C14.605 34.758 14.701 34.7295 15.095 34.0855C15.3545 33.6435 15.345 31.721 15.076 31.269C14.682 30.6155 14.5185 30.577 12.327 30.5865C11.2495 30.587 10.279 30.625 10.1635 30.673Z" fill="#8EC63F"/>
<path d="M20.689 30.798C20.1605 31.144 20.026 31.5285 20.026 32.6915C20.026 33.8545 20.1605 34.239 20.689 34.585C21.006 34.7965 21.0925 34.806 23.0055 34.806C24.9085 34.806 25.005 34.7965 25.3125 34.585C25.851 34.2195 25.9855 33.845 25.9855 32.6915C25.9855 31.5285 25.851 31.144 25.322 30.798C25.005 30.5865 24.9185 30.577 23.0055 30.577C21.0925 30.577 21.006 30.587 20.689 30.798Z" fill="#8EC63F"/>
<path d="M31.3585 30.808C30.8585 31.154 30.7435 31.5095 30.7435 32.74C30.7435 33.6725 30.7725 33.836 30.9645 34.1435C31.33 34.749 31.5795 34.8065 33.7235 34.8065C35.7515 34.8065 35.9055 34.7775 36.367 34.278C36.598 34.028 36.6075 33.98 36.6075 32.6825V31.3465L36.2425 30.991L35.887 30.6255L33.7915 30.5965C31.7045 30.5675 31.7045 30.5675 31.3585 30.808Z" fill="#8EC63F"/>
<path d="M10.077 38.4495C9.43299 38.8435 9.40399 38.9205 9.40399 40.391V41.727L9.76899 42.0825L10.1245 42.4475L12.172 42.4765C14.4695 42.515 14.652 42.4765 15.0555 41.8325C15.238 41.525 15.267 41.3615 15.267 40.381C15.267 39.4005 15.238 39.237 15.046 38.9295C14.671 38.324 14.431 38.266 12.268 38.266C10.5865 38.267 10.3365 38.286 10.077 38.4495Z" fill="#8EC63F"/>
<path d="M20.689 38.488C20.1605 38.834 20.026 39.2185 20.026 40.3815C20.026 41.5445 20.1605 41.929 20.689 42.275C21.006 42.4865 21.0925 42.496 23.0055 42.496C24.9185 42.496 25.005 42.4865 25.322 42.275C25.8505 41.929 25.9855 41.5445 25.9855 40.3815C25.9855 39.2185 25.851 38.834 25.322 38.488C25.005 38.2765 24.9185 38.267 23.0055 38.267C21.0925 38.267 21.006 38.2765 20.689 38.488Z" fill="#8EC63F"/>
<path d="M14.643 6.06554V7.50754H23.006H31.3685V6.06554V4.62354H23.0055H14.643V6.06554Z" fill="#8EC63F"/>
</svg>
